<svg width="23" height="23" viewBox="0 0 23 23" fill="none" xmlns="http://www.w3.org/2000/svg">
<path fill-rule="evenodd" clip-rule="evenodd" d="M7.13163 0.47225C8.30463 0.41825 8.67863 0.40625 11.6666 0.40625C14.6546 0.40625 15.0286 0.41925 16.2006 0.47225C17.3726 0.52525 18.1726 0.71225 18.8726 0.98325C19.6056 1.26025 20.2706 1.69325 20.8206 2.25325C21.3806 2.80225 21.8126 3.46625 22.0886 4.20025C22.3606 4.90025 22.5466 5.70025 22.6006 6.87025C22.6546 8.04525 22.6666 8.41925 22.6666 11.4062C22.6666 14.3942 22.6536 14.7682 22.6006 15.9412C22.5476 17.1112 22.3606 17.9112 22.0886 18.6112C21.8126 19.3453 21.3799 20.0104 20.8206 20.5602C20.2706 21.1202 19.6056 21.5523 18.8726 21.8283C18.1726 22.1003 17.3726 22.2862 16.2026 22.3403C15.0286 22.3943 14.6546 22.4062 11.6666 22.4062C8.67863 22.4062 8.30463 22.3932 7.13163 22.3403C5.96163 22.2873 5.16163 22.1003 4.46163 21.8283C3.72755 21.5522 3.06245 21.1195 2.51263 20.5602C1.95301 20.0109 1.51994 19.3461 1.24363 18.6122C0.972626 17.9122 0.786626 17.1122 0.732626 15.9422C0.678626 14.7672 0.666626 14.3932 0.666626 11.4062C0.666626 8.41825 0.679626 8.04425 0.732626 6.87225C0.785626 5.70025 0.972626 4.90025 1.24363 4.20025C1.52035 3.46633 1.95374 2.80156 2.51363 2.25225C3.06267 1.69275 3.7271 1.25969 4.46063 0.98325C5.16063 0.71225 5.96063 0.52625 7.13063 0.47225H7.13163ZM16.1116 2.45225C14.9516 2.39925 14.6036 2.38825 11.6666 2.38825C8.72963 2.38825 8.38163 2.39925 7.22163 2.45225C6.14863 2.50125 5.56663 2.68025 5.17863 2.83125C4.66563 3.03125 4.29863 3.26825 3.91363 3.65325C3.54867 4.0083 3.26781 4.44053 3.09163 4.91825C2.94063 5.30625 2.76163 5.88825 2.71263 6.96125C2.65963 8.12125 2.64863 8.46925 2.64863 11.4062C2.64863 14.3433 2.65963 14.6912 2.71263 15.8512C2.76163 16.9242 2.94063 17.5063 3.09163 17.8943C3.26763 18.3713 3.54863 18.8043 3.91363 19.1593C4.26863 19.5243 4.70163 19.8053 5.17863 19.9813C5.56663 20.1322 6.14863 20.3113 7.22163 20.3603C8.38163 20.4132 8.72863 20.4242 11.6666 20.4242C14.6046 20.4242 14.9516 20.4132 16.1116 20.3603C17.1846 20.3113 17.7666 20.1322 18.1546 19.9813C18.6676 19.7812 19.0346 19.5443 19.4196 19.1593C19.7846 18.8043 20.0656 18.3713 20.2416 17.8943C20.3926 17.5063 20.5716 16.9242 20.6206 15.8512C20.6736 14.6912 20.6846 14.3433 20.6846 11.4062C20.6846 8.46925 20.6736 8.12125 20.6206 6.96125C20.5716 5.88825 20.3926 5.30625 20.2416 4.91825C20.0416 4.40525 19.8046 4.03825 19.4196 3.65325C19.0646 3.28832 18.6323 3.00746 18.1546 2.83125C17.7666 2.68025 17.1846 2.50125 16.1116 2.45225ZM10.2616 14.7972C11.0463 15.1239 11.92 15.168 12.7336 14.922C13.5471 14.676 14.25 14.1552 14.7222 13.4485C15.1945 12.7418 15.4067 11.8931 15.3227 11.0474C15.2387 10.2016 14.8636 9.41122 14.2616 8.81125C13.8779 8.42773 13.4138 8.13406 12.903 7.9514C12.3921 7.76873 11.8471 7.70161 11.3071 7.75487C10.7672 7.80812 10.2458 7.98043 9.78043 8.25938C9.31508 8.53833 8.91737 8.91699 8.61593 9.3681C8.31449 9.81921 8.11681 10.3315 8.03714 10.8682C7.95747 11.4049 7.99778 11.9525 8.15517 12.4718C8.31255 12.991 8.58311 13.4689 8.94735 13.871C9.31159 14.2731 9.76045 14.5894 10.2616 14.7972ZM7.66863 7.40825C8.19365 6.88322 8.81695 6.46675 9.50292 6.18261C10.1889 5.89847 10.9241 5.75222 11.6666 5.75222C12.4091 5.75222 13.1444 5.89847 13.8303 6.18261C14.5163 6.46675 15.1396 6.88322 15.6646 7.40825C16.1897 7.93327 16.6061 8.55657 16.8903 9.24255C17.1744 9.92853 17.3207 10.6638 17.3207 11.4062C17.3207 12.1487 17.1744 12.884 16.8903 13.57C16.6061 14.2559 16.1897 14.8792 15.6646 15.4043C14.6043 16.4646 13.1662 17.0603 11.6666 17.0603C10.1671 17.0603 8.72896 16.4646 7.66863 15.4043C6.60829 14.3439 6.0126 12.9058 6.0126 11.4062C6.0126 9.90671 6.60829 8.46859 7.66863 7.40825ZM18.5746 6.59425C18.7047 6.47152 18.8089 6.32393 18.8809 6.16022C18.953 5.99652 18.9914 5.82002 18.994 5.64118C18.9967 5.46234 18.9633 5.2848 18.8961 5.11906C18.8289 4.95332 18.7291 4.80276 18.6026 4.67629C18.4761 4.54982 18.3256 4.45001 18.1598 4.38277C17.9941 4.31553 17.8165 4.28223 17.6377 4.28483C17.4589 4.28744 17.2824 4.3259 17.1187 4.39795C16.9549 4.46999 16.8074 4.57415 16.6846 4.70425C16.4459 4.95728 16.3153 5.29337 16.3203 5.64118C16.3254 5.98899 16.4658 6.32113 16.7118 6.56709C16.9577 6.81306 17.2899 6.95348 17.6377 6.95855C17.9855 6.96362 18.3216 6.83294 18.5746 6.59425Z" fill="url(#paint0_linear)"/>
<defs>
<linearGradient id="paint0_linear" x1="11.6666" y1="0.40625" x2="11.6666" y2="22.4062" gradientUnits="userSpaceOnUse">
<stop stop-color="#8C3AA9"/>
<stop offset="0.45625" stop-color="#DE3B72"/>
<stop offset="1" stop-color="#F98C23"/>
</linearGradient>
</defs>
</svg>
