<svg width="24" height="29" viewBox="0 0 24 29" fill="none" xmlns="http://www.w3.org/2000/svg">
<path fill-rule="evenodd" clip-rule="evenodd" d="M2.7727 25.1334C-3.01566 20.1139 0.728246 8.93493 9.62483 10.3431V11.3776C2.11145 11.0296 -1.19482 19.9893 2.7727 25.1334ZM19.0038 5.74506C19.9174 6.47627 21.1792 7.0127 22.917 7.11808V8.13347C20.9939 7.77585 19.7736 6.82112 19.0038 5.74506ZM16.592 0.40625C16.592 0.779839 16.6399 1.18217 16.7006 1.54937H13.1547V19.2038C13.1547 20.0181 13.0717 20.7429 12.9055 21.3783C11.4616 24.5618 7.36954 24.1435 6.24189 21.9626C7.92537 23.0164 10.6918 22.7354 11.8258 20.2352C11.9919 19.5998 12.075 18.8749 12.075 18.0607V0.40625H16.592Z" fill="#00F7EF"/>
<path fill-rule="evenodd" clip-rule="evenodd" d="M17.6717 1.54932V1.57167C17.6717 1.98038 17.7931 7.89075 23.9968 8.25795C23.9968 13.7564 24 8.25795 24 12.824C23.5336 12.8528 19.9143 12.5909 17.6654 10.5825L17.659 19.472C17.7133 23.4985 15.474 27.4451 11.2764 28.2402C10.1009 28.4637 9.0403 28.4892 7.26418 28.0997C-2.97727 25.0439 0.424834 9.86087 10.7078 11.4861C10.7078 16.3875 10.711 11.4861 10.711 16.3875C6.46237 15.7617 5.04403 19.2932 6.17167 21.8221C7.20029 24.1243 11.4266 24.6224 12.9024 21.3751C13.0685 20.7396 13.1516 20.0148 13.1516 19.2006V1.54932H17.6717Z" fill="black"/>
<path fill-rule="evenodd" clip-rule="evenodd" d="M9.62806 11.3776C9.97945 11.3935 10.3404 11.4287 10.7078 11.4861C10.7078 16.3875 10.711 11.4861 10.711 16.3875C6.46235 15.7617 5.04401 19.2932 6.17165 21.8221C6.19082 21.8668 6.21638 21.9147 6.23874 21.9594C5.73401 21.6433 5.32832 21.209 5.09193 20.679C3.96428 18.1501 5.38262 14.6185 9.63126 15.2444C9.62806 10.7517 9.62806 14.4908 9.62806 11.3776ZM22.917 8.13023C23.2556 8.19089 23.6166 8.2356 23.9968 8.25795C23.9968 13.7564 24 8.25795 24 12.824C23.5336 12.8528 19.9142 12.5909 17.6653 10.5825L17.6589 19.472C17.7132 23.4985 15.4739 27.4451 11.2764 28.2402C10.1008 28.4637 9.04028 28.4892 7.26416 28.0997C5.26443 27.5026 3.78539 26.4393 2.77594 25.1301C3.67678 25.9124 4.80762 26.5446 6.18443 26.9565C7.96055 27.3429 9.01792 27.3174 10.1935 27.097C14.391 26.3052 16.6335 22.3585 16.5792 18.3353L16.5856 9.44258C18.8377 11.451 22.4538 11.7128 22.9234 11.6841C22.9202 7.44053 22.917 11.8821 22.917 8.13023ZM17.6717 1.54932V1.57167C17.6717 1.81115 17.7132 3.94731 19.0038 5.74501C17.4513 4.5029 16.8955 2.7084 16.7006 1.54932H17.6717Z" fill="#FF004F"/>
</svg>
