<svg width="24" height="18" viewBox="0 0 24 18" fill="none" xmlns="http://www.w3.org/2000/svg">
<g clip-path="url(#clip0)">
<path d="M23.4697 3.10078C23.3321 2.59205 23.0635 2.12826 22.6909 1.75559C22.3182 1.38292 21.8544 1.11437 21.3457 0.976687C19.4833 0.46875 11.9876 0.46875 11.9876 0.46875C11.9876 0.46875 4.49152 0.484125 2.62909 0.992062C2.12035 1.12975 1.65656 1.39831 1.28391 1.771C0.911253 2.14369 0.642732 2.6075 0.505086 3.11625C-0.0582574 6.42544 -0.276789 11.4679 0.520555 14.6447C0.658215 15.1534 0.926742 15.6172 1.2994 15.9899C1.67205 16.3625 2.13583 16.6311 2.64456 16.7688C4.50699 17.2767 12.0029 17.2767 12.0029 17.2767C12.0029 17.2767 19.4986 17.2767 21.361 16.7688C21.8697 16.6311 22.3335 16.3626 22.7062 15.9899C23.0789 15.6172 23.3474 15.1534 23.4851 14.6447C24.0793 11.3308 24.2624 6.29156 23.4697 3.10087V3.10078Z" fill="#FF0000"/>
<path d="M9.60181 12.4744L15.8202 8.87268L9.6019 5.271L9.60181 12.4744Z" fill="white"/>
</g>
<defs>
<clipPath id="clip0">
<rect width="24" height="16.875" fill="white" transform="translate(-6.10352e-05 0.46875)"/>
</clipPath>
</defs>
</svg>
